<mxfile host="app.diagrams.net" modified="2022-02-26T07:08:19.923Z" agent="5.0 (Windows NT 10.0; Win64; x64) AppleWebKit/537.36 (KHTML, like Gecko) Chrome/98.0.4758.102 Safari/537.36" etag="xg0EBtLiy3eDvFFFFshC" version="16.6.4" type="github">
  <diagram name="Page-1" id="197159a0-c6a4-9194-75a8-e4174976684c">
    <mxGraphModel dx="1738" dy="1049" grid="1" gridSize="10" guides="1" tooltips="1" connect="1" arrows="1" fold="1" page="1" pageScale="1.5" pageWidth="1169" pageHeight="826" background="none" math="0" shadow="0">
      <root>
        <mxCell id="0" style=";html=1;" />
        <mxCell id="1" style=";html=1;" parent="0" />
        <mxCell id="Wwut1bjpk7ivc4J39619-7" value="" style="edgeStyle=orthogonalEdgeStyle;rounded=0;orthogonalLoop=1;jettySize=auto;html=1;fontFamily=Lucida Console;fontSize=18;" edge="1" parent="1" source="Wwut1bjpk7ivc4J39619-1" target="Wwut1bjpk7ivc4J39619-6">
          <mxGeometry relative="1" as="geometry" />
        </mxCell>
        <mxCell id="Wwut1bjpk7ivc4J39619-17" style="edgeStyle=orthogonalEdgeStyle;rounded=0;orthogonalLoop=1;jettySize=auto;html=1;exitX=0.5;exitY=1;exitDx=0;exitDy=0;fontFamily=Lucida Console;fontSize=18;" edge="1" parent="1" source="Wwut1bjpk7ivc4J39619-1" target="Wwut1bjpk7ivc4J39619-2">
          <mxGeometry relative="1" as="geometry" />
        </mxCell>
        <mxCell id="Wwut1bjpk7ivc4J39619-1" value="Enviroment(by capture)" style="rounded=0;whiteSpace=wrap;html=1;fillColor=#dae8fc;strokeColor=#6c8ebf;fontSize=18;fontFamily=Lucida Console;" vertex="1" parent="1">
          <mxGeometry x="690" y="190" width="360" height="60" as="geometry" />
        </mxCell>
        <mxCell id="Wwut1bjpk7ivc4J39619-25" style="edgeStyle=orthogonalEdgeStyle;rounded=0;orthogonalLoop=1;jettySize=auto;html=1;exitX=0.25;exitY=1;exitDx=0;exitDy=0;entryX=0.5;entryY=0;entryDx=0;entryDy=0;fontFamily=Lucida Console;fontSize=18;" edge="1" parent="1" source="Wwut1bjpk7ivc4J39619-2" target="Wwut1bjpk7ivc4J39619-21">
          <mxGeometry relative="1" as="geometry" />
        </mxCell>
        <mxCell id="Wwut1bjpk7ivc4J39619-26" style="edgeStyle=orthogonalEdgeStyle;rounded=0;orthogonalLoop=1;jettySize=auto;html=1;exitX=0.75;exitY=1;exitDx=0;exitDy=0;entryX=0.5;entryY=0;entryDx=0;entryDy=0;fontFamily=Lucida Console;fontSize=18;" edge="1" parent="1" source="Wwut1bjpk7ivc4J39619-2" target="Wwut1bjpk7ivc4J39619-23">
          <mxGeometry relative="1" as="geometry" />
        </mxCell>
        <mxCell id="Wwut1bjpk7ivc4J39619-2" value="Feature Encoder&lt;br&gt;(Stacked CNN)" style="rounded=0;whiteSpace=wrap;html=1;fontFamily=Lucida Console;fontSize=18;fillColor=#fff2cc;strokeColor=#d6b656;" vertex="1" parent="1">
          <mxGeometry x="710" y="330" width="320" height="90" as="geometry" />
        </mxCell>
        <mxCell id="Wwut1bjpk7ivc4J39619-8" style="edgeStyle=orthogonalEdgeStyle;rounded=0;orthogonalLoop=1;jettySize=auto;html=1;exitX=0.5;exitY=1;exitDx=0;exitDy=0;fontFamily=Lucida Console;fontSize=18;entryX=0.5;entryY=0;entryDx=0;entryDy=0;" edge="1" parent="1" source="Wwut1bjpk7ivc4J39619-6" target="Wwut1bjpk7ivc4J39619-11">
          <mxGeometry relative="1" as="geometry">
            <mxPoint x="1300" y="325" as="targetPoint" />
            <Array as="points" />
          </mxGeometry>
        </mxCell>
        <mxCell id="Wwut1bjpk7ivc4J39619-13" value="" style="edgeStyle=orthogonalEdgeStyle;rounded=0;orthogonalLoop=1;jettySize=auto;html=1;fontFamily=Lucida Console;fontSize=18;" edge="1" parent="1" source="Wwut1bjpk7ivc4J39619-6" target="Wwut1bjpk7ivc4J39619-12">
          <mxGeometry relative="1" as="geometry" />
        </mxCell>
        <mxCell id="Wwut1bjpk7ivc4J39619-6" value="if Level Up" style="rhombus;whiteSpace=wrap;html=1;fontFamily=Lucida Console;fontSize=18;fillColor=#e1d5e7;strokeColor=#9673a6;" vertex="1" parent="1">
          <mxGeometry x="1170" y="170" width="260" height="100" as="geometry" />
        </mxCell>
        <mxCell id="Wwut1bjpk7ivc4J39619-16" style="edgeStyle=orthogonalEdgeStyle;rounded=0;orthogonalLoop=1;jettySize=auto;html=1;fontFamily=Lucida Console;fontSize=18;entryX=1;entryY=0.5;entryDx=0;entryDy=0;" edge="1" parent="1" source="Wwut1bjpk7ivc4J39619-11" target="Wwut1bjpk7ivc4J39619-12">
          <mxGeometry relative="1" as="geometry">
            <mxPoint x="1532.2222222222222" y="120" as="targetPoint" />
            <Array as="points">
              <mxPoint x="1470" y="360" />
              <mxPoint x="1470" y="105" />
            </Array>
          </mxGeometry>
        </mxCell>
        <mxCell id="Wwut1bjpk7ivc4J39619-11" value="SELECTION&amp;amp;&amp;amp;&lt;br&gt;Update vector" style="rounded=0;whiteSpace=wrap;html=1;fontFamily=Lucida Console;fontSize=18;fillColor=#eeeeee;strokeColor=#36393d;" vertex="1" parent="1">
          <mxGeometry x="1210" y="330" width="180" height="100" as="geometry" />
        </mxCell>
        <mxCell id="Wwut1bjpk7ivc4J39619-28" style="edgeStyle=orthogonalEdgeStyle;rounded=0;orthogonalLoop=1;jettySize=auto;html=1;exitX=0;exitY=0.5;exitDx=0;exitDy=0;entryX=0.5;entryY=0;entryDx=0;entryDy=0;fontFamily=Lucida Console;fontSize=18;" edge="1" parent="1" source="Wwut1bjpk7ivc4J39619-12" target="Wwut1bjpk7ivc4J39619-27">
          <mxGeometry relative="1" as="geometry">
            <Array as="points">
              <mxPoint x="1100" y="105" />
              <mxPoint x="1100" y="530" />
              <mxPoint x="1330" y="530" />
            </Array>
          </mxGeometry>
        </mxCell>
        <mxCell id="Wwut1bjpk7ivc4J39619-12" value="MCTS VECTOR" style="rounded=0;whiteSpace=wrap;html=1;fontFamily=Lucida Console;fontSize=18;fillColor=#f5f5f5;fontColor=#333333;strokeColor=#666666;" vertex="1" parent="1">
          <mxGeometry x="1200" y="60" width="200" height="90" as="geometry" />
        </mxCell>
        <mxCell id="Wwut1bjpk7ivc4J39619-15" value="True" style="text;html=1;strokeColor=none;fillColor=none;align=center;verticalAlign=middle;whiteSpace=wrap;rounded=0;fontFamily=Lucida Console;fontSize=18;" vertex="1" parent="1">
          <mxGeometry x="1200" y="280" width="60" height="30" as="geometry" />
        </mxCell>
        <mxCell id="Wwut1bjpk7ivc4J39619-31" style="edgeStyle=orthogonalEdgeStyle;rounded=0;orthogonalLoop=1;jettySize=auto;html=1;exitX=0.5;exitY=1;exitDx=0;exitDy=0;entryX=0.5;entryY=0;entryDx=0;entryDy=0;fontFamily=Lucida Console;fontSize=18;" edge="1" parent="1" source="Wwut1bjpk7ivc4J39619-21" target="Wwut1bjpk7ivc4J39619-29">
          <mxGeometry relative="1" as="geometry" />
        </mxCell>
        <mxCell id="Wwut1bjpk7ivc4J39619-21" value="Phi&lt;br&gt;FC layer" style="rounded=0;whiteSpace=wrap;html=1;fontFamily=Lucida Console;fontSize=18;fillColor=#ffff88;strokeColor=#36393d;" vertex="1" parent="1">
          <mxGeometry x="620" y="630" width="220" height="90" as="geometry" />
        </mxCell>
        <mxCell id="Wwut1bjpk7ivc4J39619-35" style="edgeStyle=orthogonalEdgeStyle;rounded=0;orthogonalLoop=1;jettySize=auto;html=1;exitX=0.5;exitY=1;exitDx=0;exitDy=0;fontFamily=Lucida Console;fontSize=18;" edge="1" parent="1" source="Wwut1bjpk7ivc4J39619-23" target="Wwut1bjpk7ivc4J39619-34">
          <mxGeometry relative="1" as="geometry" />
        </mxCell>
        <mxCell id="Wwut1bjpk7ivc4J39619-23" value="Value&lt;br&gt;FC layer" style="rounded=0;whiteSpace=wrap;html=1;fontFamily=Lucida Console;fontSize=18;" vertex="1" parent="1">
          <mxGeometry x="900" y="630" width="220" height="90" as="geometry" />
        </mxCell>
        <mxCell id="Wwut1bjpk7ivc4J39619-30" style="edgeStyle=orthogonalEdgeStyle;rounded=0;orthogonalLoop=1;jettySize=auto;html=1;fontFamily=Lucida Console;fontSize=18;entryX=0.75;entryY=0;entryDx=0;entryDy=0;" edge="1" parent="1" source="Wwut1bjpk7ivc4J39619-27" target="Wwut1bjpk7ivc4J39619-29">
          <mxGeometry relative="1" as="geometry">
            <mxPoint x="770" y="850" as="targetPoint" />
            <Array as="points">
              <mxPoint x="1330" y="820" />
              <mxPoint x="785" y="820" />
            </Array>
          </mxGeometry>
        </mxCell>
        <mxCell id="Wwut1bjpk7ivc4J39619-36" style="edgeStyle=orthogonalEdgeStyle;rounded=0;orthogonalLoop=1;jettySize=auto;html=1;exitX=0.5;exitY=1;exitDx=0;exitDy=0;entryX=0.75;entryY=0;entryDx=0;entryDy=0;fontFamily=Lucida Console;fontSize=18;" edge="1" parent="1" source="Wwut1bjpk7ivc4J39619-27" target="Wwut1bjpk7ivc4J39619-34">
          <mxGeometry relative="1" as="geometry" />
        </mxCell>
        <mxCell id="Wwut1bjpk7ivc4J39619-27" value="MCTS&lt;br&gt;FC layer" style="rounded=0;whiteSpace=wrap;html=1;fontFamily=Lucida Console;fontSize=18;fillColor=#cdeb8b;strokeColor=#36393d;" vertex="1" parent="1">
          <mxGeometry x="1220" y="630" width="220" height="90" as="geometry" />
        </mxCell>
        <mxCell id="Wwut1bjpk7ivc4J39619-39" style="edgeStyle=orthogonalEdgeStyle;rounded=0;orthogonalLoop=1;jettySize=auto;html=1;exitX=0.5;exitY=1;exitDx=0;exitDy=0;fontFamily=Lucida Console;fontSize=18;" edge="1" parent="1" source="Wwut1bjpk7ivc4J39619-29">
          <mxGeometry relative="1" as="geometry">
            <mxPoint x="730.8888888888887" y="1030" as="targetPoint" />
          </mxGeometry>
        </mxCell>
        <mxCell id="Wwut1bjpk7ivc4J39619-29" value="Phi&lt;br&gt;FC layer2" style="rounded=0;whiteSpace=wrap;html=1;fontFamily=Lucida Console;fontSize=18;fillColor=#ffff88;strokeColor=#36393d;" vertex="1" parent="1">
          <mxGeometry x="620" y="870" width="220" height="90" as="geometry" />
        </mxCell>
        <mxCell id="Wwut1bjpk7ivc4J39619-32" value="concat" style="text;html=1;strokeColor=none;fillColor=none;align=center;verticalAlign=middle;whiteSpace=wrap;rounded=0;fontFamily=Lucida Console;fontSize=18;" vertex="1" parent="1">
          <mxGeometry x="740" y="790" width="60" height="30" as="geometry" />
        </mxCell>
        <mxCell id="Wwut1bjpk7ivc4J39619-40" style="edgeStyle=orthogonalEdgeStyle;rounded=0;orthogonalLoop=1;jettySize=auto;html=1;exitX=0.5;exitY=1;exitDx=0;exitDy=0;fontFamily=Lucida Console;fontSize=18;" edge="1" parent="1" source="Wwut1bjpk7ivc4J39619-34">
          <mxGeometry relative="1" as="geometry">
            <mxPoint x="1010.8888888888887" y="1020" as="targetPoint" />
          </mxGeometry>
        </mxCell>
        <mxCell id="Wwut1bjpk7ivc4J39619-34" value="Value&lt;br&gt;FC layer2" style="rounded=0;whiteSpace=wrap;html=1;fontFamily=Lucida Console;fontSize=18;" vertex="1" parent="1">
          <mxGeometry x="900" y="870" width="220" height="90" as="geometry" />
        </mxCell>
        <mxCell id="Wwut1bjpk7ivc4J39619-37" value="concat" style="text;html=1;strokeColor=none;fillColor=none;align=center;verticalAlign=middle;whiteSpace=wrap;rounded=0;fontFamily=Lucida Console;fontSize=18;" vertex="1" parent="1">
          <mxGeometry x="930" y="780" width="60" height="30" as="geometry" />
        </mxCell>
        <mxCell id="Wwut1bjpk7ivc4J39619-41" value="actions" style="text;html=1;strokeColor=none;fillColor=none;align=center;verticalAlign=middle;whiteSpace=wrap;rounded=0;fontFamily=Lucida Console;fontSize=18;" vertex="1" parent="1">
          <mxGeometry x="710" y="1050" width="60" height="30" as="geometry" />
        </mxCell>
        <mxCell id="Wwut1bjpk7ivc4J39619-42" value="value" style="text;html=1;strokeColor=none;fillColor=none;align=center;verticalAlign=middle;whiteSpace=wrap;rounded=0;fontFamily=Lucida Console;fontSize=18;" vertex="1" parent="1">
          <mxGeometry x="980" y="1040" width="60" height="30" as="geometry" />
        </mxCell>
      </root>
    </mxGraphModel>
  </diagram>
</mxfile>
